%TF.GenerationSoftware,KiCad,Pcbnew,(6.0.11)*%
%TF.CreationDate,2023-06-02T23:59:17-07:00*%
%TF.ProjectId,MageV2,4d616765-5632-42e6-9b69-6361645f7063,rev?*%
%TF.SameCoordinates,Original*%
%TF.FileFunction,Paste,Bot*%
%TF.FilePolarity,Positive*%
%FSLAX46Y46*%
G04 Gerber Fmt 4.6, Leading zero omitted, Abs format (unit mm)*
G04 Created by KiCad (PCBNEW (6.0.11)) date 2023-06-02 23:59:17*
%MOMM*%
%LPD*%
G01*
G04 APERTURE LIST*
G04 Aperture macros list*
%AMRoundRect*
0 Rectangle with rounded corners*
0 $1 Rounding radius*
0 $2 $3 $4 $5 $6 $7 $8 $9 X,Y pos of 4 corners*
0 Add a 4 corners polygon primitive as box body*
4,1,4,$2,$3,$4,$5,$6,$7,$8,$9,$2,$3,0*
0 Add four circle primitives for the rounded corners*
1,1,$1+$1,$2,$3*
1,1,$1+$1,$4,$5*
1,1,$1+$1,$6,$7*
1,1,$1+$1,$8,$9*
0 Add four rect primitives between the rounded corners*
20,1,$1+$1,$2,$3,$4,$5,0*
20,1,$1+$1,$4,$5,$6,$7,0*
20,1,$1+$1,$6,$7,$8,$9,0*
20,1,$1+$1,$8,$9,$2,$3,0*%
%AMHorizOval*
0 Thick line with rounded ends*
0 $1 width*
0 $2 $3 position (X,Y) of the first rounded end (center of the circle)*
0 $4 $5 position (X,Y) of the second rounded end (center of the circle)*
0 Add line between two ends*
20,1,$1,$2,$3,$4,$5,0*
0 Add two circle primitives to create the rounded ends*
1,1,$1,$2,$3*
1,1,$1,$4,$5*%
G04 Aperture macros list end*
%ADD10R,0.600000X2.000000*%
%ADD11RoundRect,0.237500X0.237500X-0.250000X0.237500X0.250000X-0.237500X0.250000X-0.237500X-0.250000X0*%
%ADD12HorizOval,1.998980X-0.096967X-0.361884X0.096967X0.361884X0*%
%ADD13HorizOval,1.016000X-0.490690X0.131480X0.490690X-0.131480X0*%
%ADD14C,1.143000*%
%ADD15RoundRect,0.237500X-0.237500X0.250000X-0.237500X-0.250000X0.237500X-0.250000X0.237500X0.250000X0*%
%ADD16R,1.200000X2.500000*%
G04 APERTURE END LIST*
D10*
%TO.C,U4*%
X208255000Y-44700000D03*
X206985000Y-44700000D03*
X205715000Y-44700000D03*
X204445000Y-44700000D03*
X203175000Y-44700000D03*
X201905000Y-44700000D03*
X200635000Y-44700000D03*
X199365000Y-44700000D03*
X198095000Y-44700000D03*
X196825000Y-44700000D03*
X195555000Y-44700000D03*
X194285000Y-44700000D03*
X193015000Y-44700000D03*
X191745000Y-44700000D03*
X191745000Y-35300000D03*
X193015000Y-35300000D03*
X194285000Y-35300000D03*
X195555000Y-35300000D03*
X196825000Y-35300000D03*
X198095000Y-35300000D03*
X199365000Y-35300000D03*
X200635000Y-35300000D03*
X201905000Y-35300000D03*
X203175000Y-35300000D03*
X204445000Y-35300000D03*
X205715000Y-35300000D03*
X206985000Y-35300000D03*
X208255000Y-35300000D03*
%TD*%
D11*
%TO.C,R5*%
X124000000Y-45912500D03*
X124000000Y-44087500D03*
%TD*%
D10*
%TO.C,U5*%
X143755000Y-44700000D03*
X142485000Y-44700000D03*
X141215000Y-44700000D03*
X139945000Y-44700000D03*
X138675000Y-44700000D03*
X137405000Y-44700000D03*
X136135000Y-44700000D03*
X134865000Y-44700000D03*
X133595000Y-44700000D03*
X132325000Y-44700000D03*
X131055000Y-44700000D03*
X129785000Y-44700000D03*
X128515000Y-44700000D03*
X127245000Y-44700000D03*
X127245000Y-35300000D03*
X128515000Y-35300000D03*
X129785000Y-35300000D03*
X131055000Y-35300000D03*
X132325000Y-35300000D03*
X133595000Y-35300000D03*
X134865000Y-35300000D03*
X136135000Y-35300000D03*
X137405000Y-35300000D03*
X138675000Y-35300000D03*
X139945000Y-35300000D03*
X141215000Y-35300000D03*
X142485000Y-35300000D03*
X143755000Y-35300000D03*
%TD*%
D12*
%TO.C,U3*%
X114753424Y-122894638D03*
X117206876Y-123552039D03*
X119660328Y-124209439D03*
X122113779Y-124866839D03*
X124567231Y-125524240D03*
X127020682Y-126181640D03*
X129474134Y-126839041D03*
X125290438Y-142452806D03*
X122836986Y-141795406D03*
X120383535Y-141138006D03*
X117930083Y-140480605D03*
X115476632Y-139823205D03*
X113023180Y-139165805D03*
X110569728Y-138508404D03*
D13*
X128737949Y-133750898D03*
X128077960Y-136214008D03*
D14*
X112313475Y-129348734D03*
X111656075Y-131802186D03*
X114766927Y-130006134D03*
X114109527Y-132459586D03*
%TD*%
D11*
%TO.C,R6*%
X121000000Y-45912500D03*
X121000000Y-44087500D03*
%TD*%
D15*
%TO.C,R7*%
X210000000Y-40587500D03*
X210000000Y-42412500D03*
%TD*%
D16*
%TO.C,J2*%
X87095000Y-44250000D03*
X84095000Y-44250000D03*
X92195000Y-37750000D03*
X91095000Y-44250000D03*
%TD*%
D15*
%TO.C,R8*%
X145500000Y-39087500D03*
X145500000Y-40912500D03*
%TD*%
M02*
